<svg version="1.1" id="Clover" xmlns="http://www.w3.org/2000/svg" x="0" y="0" viewBox="0 0 512 512" style="enable-background:new 0 0 512 512" xml:space="preserve"><style>.st0{fill:#b433d3}</style><path class="st0" d="M231.5 163.7c-14.6-53.5-35.4-93.3-61.8-118.1-23-21.6-50.2-31.5-76.7-28-30.8 4.1-54 25.5-54 49.8 0 15.7 5.1 26 11.7 32.9-17 10.1-34.9 22.9-40 42.7-2.9 11.4-1 23.2 5.7 34 11.4 18.5 36.8 27.2 80.9 27.2 10.6 0 22.2-.5 35-1.5 41.7-3.2 80.1-10.7 81.8-11l23.8-4.6-6.4-23.4zM484.8 83.5c-4.1-30.7-25.5-53.8-49.8-53.8-15.7 0-26 5.1-32.9 11.6-10.1-17-22.8-34.9-42.7-40-11.4-2.9-23.2-1-34 5.7-22.9 14.1-30.8 49.8-25.7 115.9 3.2 41.7 10.7 80.1 11 81.8l4.6 23.8 23.4-6.4c53.5-14.6 93.3-35.4 118.1-61.8 21.6-23 31.5-50.3 28-76.8zM497 339.1c-12.7-23.7-47.8-33.8-114.1-32.7-41.8.7-80.6 5.8-82.3 6l-24 3.2 4.9 23.7c11.3 54.3 29.7 95.3 54.6 121.7 20.1 21.3 44.4 32.8 69.2 32.8 1.9 0 3.8-.1 5.7-.2 30.9-2.2 55.3-22.2 56.8-46.4v-.1c.9-15.7-3.6-26.3-9.7-33.5 17.2-8.8 36.4-20.9 42.6-40.3 2.5-7.8 3.9-20.1-3.7-34.2zM225.5 384.2c-7.7-41.1-19.2-78.5-19.7-80.1l-7.2-23.2-22.6 8.9C124.4 310 87.1 335 65.3 364c-19 25.2-26 53.3-19.6 79.3 7.4 30 31.1 50.7 55.3 48.1 15.6-1.7 25.4-7.8 31.5-15 11.9 15.9 26.5 32.3 46.8 35.3 1.8.3 3.8.4 6 .4 7.6 0 17.3-2.1 27.2-9.8 21.1-16.6 25.2-53 13-118.1z"/></svg>
