<?xml version="1.0" standalone="no"?>
<!DOCTYPE svg PUBLIC "-//W3C//DTD SVG 20010904//EN"
 "http://www.w3.org/TR/2001/REC-SVG-20010904/DTD/svg10.dtd">
<svg version="1.0" xmlns="http://www.w3.org/2000/svg"
 width="512.000000pt" height="512.000000pt" viewBox="0 0 512.000000 512.000000"
 preserveAspectRatio="xMidYMid meet">
<metadata>
Created by potrace 1.14, written by Peter Selinger 2001-2017
</metadata>
<g transform="translate(0.000000,512.000000) scale(0.100000,-0.100000)"
fill="#000000" stroke="none">
<path d="M3250 4685 c-170 -44 -265 -170 -316 -417 -19 -91 -25 -419 -10 -583
14 -168 27 -281 41 -375 2 -14 7 -45 10 -70 3 -25 10 -70 15 -100 5 -30 12
-73 15 -95 4 -22 8 -48 11 -57 3 -10 7 -30 10 -45 11 -65 28 -139 33 -145 9
-10 395 103 519 151 168 66 371 169 410 208 7 7 17 13 22 13 13 0 149 111 204
166 255 259 330 586 194 859 -84 170 -223 259 -389 250 -41 -2 -95 -11 -120
-21 -43 -17 -99 -50 -110 -66 -3 -5 -31 29 -62 74 -115 169 -236 255 -367 262
-36 1 -85 -3 -110 -9z"/>
<path d="M1238 4555 c-2 -2 -26 -5 -53 -9 -76 -9 -184 -49 -243 -91 -61 -43
-126 -116 -153 -172 -58 -117 -48 -271 24 -380 17 -25 27 -48 22 -50 -6 -2
-39 -23 -74 -47 -80 -55 -176 -148 -207 -201 -53 -90 -65 -223 -28 -315 66
-170 218 -258 492 -287 128 -14 454 -7 612 12 19 2 64 7 100 10 36 4 76 8 90
10 14 2 45 7 70 10 221 30 502 84 512 98 3 6 2 20 -3 31 -5 12 -20 66 -35 121
-90 348 -239 681 -390 874 -144 182 -324 311 -505 361 -61 16 -221 34 -231 25z"/>
<path d="M1910 2284 c-85 -36 -168 -70 -185 -76 -64 -24 -265 -133 -360 -196
-287 -187 -469 -398 -543 -632 -90 -279 0 -585 212 -722 67 -43 118 -60 191
-63 92 -3 219 40 268 91 30 32 40 30 73 -13 15 -21 59 -68 97 -106 172 -167
372 -189 534 -60 74 59 135 171 149 276 3 23 8 53 10 67 2 14 4 70 4 125 0
155 -9 252 -45 460 -12 70 -46 239 -57 280 -5 22 -12 48 -13 58 -2 9 -11 45
-20 80 -9 34 -18 71 -21 82 -4 21 -67 240 -101 349 -10 33 -23 61 -28 62 -6 1
-80 -27 -165 -62z"/>
<path d="M3458 2135 c-1 -1 -60 -6 -130 -9 -70 -4 -138 -9 -150 -11 -13 -2
-57 -6 -98 -10 -41 -3 -88 -8 -105 -10 -96 -13 -217 -29 -230 -30 -12 -1 -11
-4 10 -115 82 -419 205 -743 374 -980 201 -283 506 -433 783 -385 201 36 344
143 398 299 34 99 15 249 -42 328 -12 18 -17 33 -12 35 6 2 48 26 93 54 114
70 193 150 233 236 29 60 33 78 32 153 0 75 -4 93 -32 150 -37 76 -69 114
-135 159 -52 35 -186 88 -245 97 -20 3 -43 7 -50 9 -7 3 -34 7 -60 10 -26 4
-58 9 -72 12 -26 5 -556 13 -562 8z"/>
</g>
</svg>
